<svg width="33" height="29" viewBox="0 0 33 29" fill="none" xmlns="http://www.w3.org/2000/svg">
<path d="M21.9727 28.0508C20.8398 25.3555 20.2539 22.8359 20.2148 20.4922C20.0977 16.4297 20.625 12.7187 21.7969 9.35938C23.0078 5.96094 24.8242 2.99219 27.2461 0.453125L29.2969 2.38672C27.6562 3.98828 26.3477 6.13672 25.3711 8.83203C24.4336 11.4883 24.1797 14.125 24.6094 16.7422L29.6484 14.9844C31.3281 18.2656 32.4023 21.4492 32.8711 24.5352C29.2383 26.4492 25.6055 27.6211 21.9727 28.0508ZM2.51953 28.0508C1.42578 25.3555 0.839844 22.7383 0.761719 20.1992C0.644531 16.332 1.17188 12.7187 2.34375 9.35938C3.55469 5.96094 5.37109 2.99219 7.79297 0.453125L9.84375 2.38672C8.24219 3.98828 6.95312 6.13672 5.97656 8.83203C5.03906 11.4883 4.76562 14.125 5.15625 16.7422L10.1953 14.9844C11.875 18.2656 12.9492 21.4492 13.418 24.5352C9.78516 26.4492 6.15234 27.6211 2.51953 28.0508Z" fill="#005499"/>
</svg>
